ffmpeg started on 2025-05-12 at 21:40:12
Report written to "D:\Convert\FFMetrics\reports\ssim_report-6.txt"
Log level: 32
Command line:
ffmpeg -hide_banner -nostdin -i "G:\\\xc0\xed\xe8\xec\xe5\\\xce\xed\xe3\xee\xe8\xed\xe3\xe8\\!_35_\xcb\xe5\xf2\xee_2024\\DreamCast-1\\\xd1\xeb\xe8\xf8\xea\xee\xec \xec\xed\xee\xe3\xee \xef\xf0\xee\xe8\xe3\xf0\xe0\xe2\xf8\xe8\xf5 \xe3\xe5\xf0\xee\xe8\xed\xfc!\\[DC] Make Heroine ga Oosugiru - 02_Telegram_HEVC.mkv" -i "G:\\\xc0\xed\xe8\xec\xe5\\\xce\xed\xe3\xee\xe8\xed\xe3\xe8\\!_35_\xcb\xe5\xf2\xee_2024\\DreamCast-1\\\xd1\xeb\xe8\xf8\xea\xee\xec \xec\xed\xee\xe3\xee \xef\xf0\xee\xe8\xe3\xf0\xe0\xe2\xf8\xe8\xf5 \xe3\xe5\xf0\xee\xe8\xed\xfc!\\[DC] Make Heroine ga Oosugiru - 02_Telegram.mp4" -lavfi "[0:v]settb=AVTB,setpts=PTS-STARTPTS,format=pix_fmts=yuv420p10,fps=24000/1001,scale=1920:1080:flags=bicubic[main];[1:v]settb=AVTB,setpts=PTS-STARTPTS,format=pix_fmts=yuv420p,fps=24000/1001,scale=1920:1080:flags=bicubic[ref];[main][ref]ssim=eof_action=endall:stats_file='D\\:/Convert/FFMetrics/logs/ssim_logfile-6.txt'" -f null -
Input #0, matroska,webm, from 'G:\Аниме\Онгоинги\!_35_Лето_2024\DreamCast-1\Слишком много проигравших героинь!\[DC] Make Heroine ga Oosugiru - 02_Telegram_HEVC.mkv':
  Metadata:
    COMPATIBLE_BRANDS: isomiso2avc1mp41
    MAJOR_BRAND     : isom
    MINOR_VERSION   : 512
    ENCODER         : Lavf61.7.100
  Duration: 00:24:06.79, start: -0.021000, bitrate: 1002 kb/s
  Stream #0:0: Video: hevc (Main 10), yuv420p10le(tv, bt709, progressive), 1920x1080 [SAR 1:1 DAR 16:9], 23.98 fps, 23.98 tbr, 1k tbn (default)
      Metadata:
        HANDLER_NAME    : VideoHandler
        VENDOR_ID       : [0][0][0][0]
        ENCODER         : Lavc61.19.100 libx265
        BPS             : 805646
        DURATION        : 00:24:06.611708333
        NUMBER_OF_FRAMES: 34684
        NUMBER_OF_BYTES : 145682211
        _STATISTICS_WRITING_APP: mkvpropedit v66.0.0 ('Josie') 64-bit
        _STATISTICS_WRITING_DATE_UTC: 2025-05-11 09:44:12
        _STATISTICS_TAGS: BPS DURATION NUMBER_OF_FRAMES NUMBER_OF_BYTES
  Stream #0:1: Audio: aac (LC), 48000 Hz, stereo, fltp (default)
      Metadata:
        HANDLER_NAME    : SoundHandler
        VENDOR_ID       : [0][0][0][0]
        ENCODER         : Lavc61.19.100 aac
        BPS             : 193232
        DURATION        : 00:24:06.784000000
        NUMBER_OF_FRAMES: 67819
        NUMBER_OF_BYTES : 34945633
        _STATISTICS_WRITING_APP: mkvpropedit v66.0.0 ('Josie') 64-bit
        _STATISTICS_WRITING_DATE_UTC: 2025-05-11 09:44:12
        _STATISTICS_TAGS: BPS DURATION NUMBER_OF_FRAMES NUMBER_OF_BYTES
Input #1, mov,mp4,m4a,3gp,3g2,mj2, from 'G:\Аниме\Онгоинги\!_35_Лето_2024\DreamCast-1\Слишком много проигравших героинь!\[DC] Make Heroine ga Oosugiru - 02_Telegram.mp4':
  Metadata:
    major_brand     : isom
    minor_version   : 512
    compatible_brands: isomiso2avc1mp41
    encoder         : Lavf61.1.100
  Duration: 00:24:06.74, start: 0.000000, bitrate: 3699 kb/s
  Stream #1:0[0x1](und): Video: h264 (High) (avc1 / 0x31637661), yuv420p(tv, bt709, progressive), 1920x1080 [SAR 1:1 DAR 16:9], 3551 kb/s, 23.98 fps, 23.98 tbr, 24k tbn (default)
      Metadata:
        handler_name    : VideoHandler
        vendor_id       : [0][0][0][0]
        encoder         : Lavc61.3.100 h264_qsv
  Stream #1:1[0x2](und): Audio: aac (HE-AACv2) (mp4a / 0x6134706D), 48000 Hz, stereo, fltp, 144 kb/s (default)
      Metadata:
        handler_name    : SoundHandler
        vendor_id       : [0][0][0][0]
Stream mapping:
  Stream #0:0 (hevc) -> settb:default
  Stream #1:0 (h264) -> settb:default
  ssim:default -> Stream #0:0 (wrapped_avframe)
  Stream #0:1 -> #0:1 (aac (native) -> pcm_s16le (native))
Output #0, null, to 'pipe:':
  Metadata:
    COMPATIBLE_BRANDS: isomiso2avc1mp41
    MAJOR_BRAND     : isom
    MINOR_VERSION   : 512
    encoder         : Lavf61.7.100
  Stream #0:0: Video: wrapped_avframe, yuv420p10le(tv, bt709, progressive), 1920x1080 [SAR 1:1 DAR 16:9], q=2-31, 200 kb/s, 23.98 fps, 23.98 tbn
      Metadata:
        encoder         : Lavc61.19.100 wrapped_avframe
  Stream #0:1: Audio: pcm_s16le, 48000 Hz, stereo, s16, 1536 kb/s (default)
      Metadata:
        HANDLER_NAME    : SoundHandler
        VENDOR_ID       : [0][0][0][0]
        _STATISTICS_TAGS: BPS DURATION NUMBER_OF_FRAMES NUMBER_OF_BYTES
        BPS             : 193232
        DURATION        : 00:24:06.784000000
        NUMBER_OF_FRAMES: 67819
        NUMBER_OF_BYTES : 34945633
        _STATISTICS_WRITING_APP: mkvpropedit v66.0.0 ('Josie') 64-bit
        _STATISTICS_WRITING_DATE_UTC: 2025-05-11 09:44:12
        encoder         : Lavc61.19.100 pcm_s16le
frame=  151 fps=0.0 q=-0.0 size=N/A time=00:00:06.29 bitrate=N/A speed=12.1x    frame=  365 fps=356 q=-0.0 size=N/A time=00:00:15.22 bitrate=N/A speed=14.8x    frame=  557 fps=360 q=-0.0 size=N/A time=00:00:23.23 bitrate=N/A speed=  15x    frame=  770 fps=373 q=-0.0 size=N/A time=00:00:32.11 bitrate=N/A speed=15.6x    frame=  967 fps=376 q=-0.0 size=N/A time=00:00:40.33 bitrate=N/A speed=15.7x    frame= 1131 fps=365 q=-0.0 size=N/A time=00:00:47.17 bitrate=N/A speed=15.2x    frame= 1305 fps=362 q=-0.0 size=N/A time=00:00:54.42 bitrate=N/A speed=15.1x    frame= 1484 fps=360 q=-0.0 size=N/A time=00:01:01.89 bitrate=N/A speed=  15x    frame= 1634 fps=352 q=-0.0 size=N/A time=00:01:08.15 bitrate=N/A speed=14.7x    frame= 1805 fps=349 q=-0.0 size=N/A time=00:01:15.28 bitrate=N/A speed=14.6x    frame= 1982 fps=349 q=-0.0 size=N/A time=00:01:22.66 bitrate=N/A speed=14.6x    frame= 2131 fps=344 q=-0.0 size=N/A time=00:01:28.88 bitrate=N/A speed=14.3x    frame= 2290 fps=341 q=-0.0 size=N/A time=00:01:35.51 bitrate=N/A speed=14.2x    frame= 2455 fps=339 q=-0.0 size=N/A time=00:01:42.39 bitrate=N/A speed=14.1x    frame= 2606 fps=336 q=-0.0 size=N/A time=00:01:48.69 bitrate=N/A speed=  14x    frame= 2792 fps=338 q=-0.0 size=N/A time=00:01:56.44 bitrate=N/A speed=14.1x    frame= 2997 fps=341 q=-0.0 size=N/A time=00:02:04.99 bitrate=N/A speed=14.2x    frame= 3229 fps=348 q=-0.0 size=N/A time=00:02:14.67 bitrate=N/A speed=14.5x    frame= 3474 fps=354 q=-0.0 size=N/A time=00:02:24.89 bitrate=N/A speed=14.8x    frame= 3715 fps=360 q=-0.0 size=N/A time=00:02:34.94 bitrate=N/A speed=  15x    frame= 3958 fps=365 q=-0.0 size=N/A time=00:02:45.08 bitrate=N/A speed=15.2x    frame= 4208 fps=371 q=-0.0 size=N/A time=00:02:55.50 bitrate=N/A speed=15.5x    frame= 4463 fps=376 q=-0.0 size=N/A time=00:03:06.14 bitrate=N/A speed=15.7x    frame= 4728 fps=382 q=-0.0 size=N/A time=00:03:17.19 bitrate=N/A speed=15.9x    frame= 4985 fps=387 q=-0.0 size=N/A time=00:03:27.91 bitrate=N/A speed=16.1x    frame= 5254 fps=392 q=-0.0 size=N/A time=00:03:39.13 bitrate=N/A speed=16.3x    frame= 5523 fps=396 q=-0.0 size=N/A time=00:03:50.35 bitrate=N/A speed=16.5x    frame= 5778 fps=400 q=-0.0 size=N/A time=00:04:00.99 bitrate=N/A speed=16.7x    frame= 6046 fps=404 q=-0.0 size=N/A time=00:04:12.16 bitrate=N/A speed=16.8x    frame= 6281 fps=406 q=-0.0 size=N/A time=00:04:21.97 bitrate=N/A speed=16.9x    frame= 6527 fps=408 q=-0.0 size=N/A time=00:04:32.23 bitrate=N/A speed=  17x    frame= 6791 fps=411 q=-0.0 size=N/A time=00:04:43.24 bitrate=N/A speed=17.1x    frame= 7027 fps=413 q=-0.0 size=N/A time=00:04:53.08 bitrate=N/A speed=17.2x    frame= 7290 fps=415 q=-0.0 size=N/A time=00:05:04.05 bitrate=N/A speed=17.3x    frame= 7544 fps=418 q=-0.0 size=N/A time=00:05:14.64 bitrate=N/A speed=17.4x    frame= 7782 fps=419 q=-0.0 size=N/A time=00:05:24.57 bitrate=N/A speed=17.5x    frame= 8015 fps=420 q=-0.0 size=N/A time=00:05:34.29 bitrate=N/A speed=17.5x    frame= 8272 fps=421 q=-0.0 size=N/A time=00:05:45.01 bitrate=N/A speed=17.6x    frame= 8512 fps=423 q=-0.0 size=N/A time=00:05:55.02 bitrate=N/A speed=17.6x    frame= 8762 fps=424 q=-0.0 size=N/A time=00:06:05.44 bitrate=N/A speed=17.7x    frame= 8999 fps=425 q=-0.0 size=N/A time=00:06:15.33 bitrate=N/A speed=17.7x    frame= 9244 fps=426 q=-0.0 size=N/A time=00:06:25.55 bitrate=N/A speed=17.8x    frame= 9492 fps=427 q=-0.0 size=N/A time=00:06:35.89 bitrate=N/A speed=17.8x    frame= 9717 fps=428 q=-0.0 size=N/A time=00:06:45.27 bitrate=N/A speed=17.8x    frame= 9933 fps=428 q=-0.0 size=N/A time=00:06:54.28 bitrate=N/A speed=17.8x    frame=10190 fps=429 q=-0.0 size=N/A time=00:07:05.00 bitrate=N/A speed=17.9x    frame=10433 fps=430 q=-0.0 size=N/A time=00:07:15.14 bitrate=N/A speed=17.9x    frame=10666 fps=430 q=-0.0 size=N/A time=00:07:24.86 bitrate=N/A speed=  18x    frame=10908 fps=431 q=-0.0 size=N/A time=00:07:34.95 bitrate=N/A speed=  18x    frame=11154 fps=432 q=-0.0 size=N/A time=00:07:45.21 bitrate=N/A speed=  18x    frame=11399 fps=433 q=-0.0 size=N/A time=00:07:55.43 bitrate=N/A speed=18.1x    frame=11642 fps=434 q=-0.0 size=N/A time=00:08:05.56 bitrate=N/A speed=18.1x    frame=11901 fps=435 q=-0.0 size=N/A time=00:08:16.37 bitrate=N/A speed=18.1x    frame=12133 fps=435 q=-0.0 size=N/A time=00:08:26.04 bitrate=N/A speed=18.2x    frame=12397 fps=437 q=-0.0 size=N/A time=00:08:37.05 bitrate=N/A speed=18.2x    frame=12665 fps=438 q=-0.0 size=N/A time=00:08:48.23 bitrate=N/A speed=18.3x    frame=12907 fps=439 q=-0.0 size=N/A time=00:08:58.32 bitrate=N/A speed=18.3x    frame=13152 fps=439 q=-0.0 size=N/A time=00:09:08.54 bitrate=N/A speed=18.3x    frame=13396 fps=440 q=-0.0 size=N/A time=00:09:18.72 bitrate=N/A speed=18.3x    frame=13627 fps=440 q=-0.0 size=N/A time=00:09:28.35 bitrate=N/A speed=18.4x    frame=13883 fps=441 q=-0.0 size=N/A time=00:09:39.03 bitrate=N/A speed=18.4x    frame=14144 fps=442 q=-0.0 size=N/A time=00:09:49.92 bitrate=N/A speed=18.4x    frame=14392 fps=443 q=-0.0 size=N/A time=00:10:00.26 bitrate=N/A speed=18.5x    frame=14650 fps=444 q=-0.0 size=N/A time=00:10:11.02 bitrate=N/A speed=18.5x    frame=14907 fps=444 q=-0.0 size=N/A time=00:10:21.74 bitrate=N/A speed=18.5x    frame=15156 fps=445 q=-0.0 size=N/A time=00:10:32.17 bitrate=N/A speed=18.6x    frame=15421 fps=446 q=-0.0 size=N/A time=00:10:43.18 bitrate=N/A speed=18.6x    frame=15669 fps=447 q=-0.0 size=N/A time=00:10:53.52 bitrate=N/A speed=18.6x    frame=15935 fps=447 q=-0.0 size=N/A time=00:11:04.62 bitrate=N/A speed=18.7x    frame=16158 fps=447 q=-0.0 size=N/A time=00:11:13.92 bitrate=N/A speed=18.7x    frame=16413 fps=448 q=-0.0 size=N/A time=00:11:24.55 bitrate=N/A speed=18.7x    frame=16674 fps=449 q=-0.0 size=N/A time=00:11:35.44 bitrate=N/A speed=18.7x    frame=16934 fps=449 q=-0.0 size=N/A time=00:11:46.28 bitrate=N/A speed=18.7x    frame=17181 fps=450 q=-0.0 size=N/A time=00:11:56.59 bitrate=N/A speed=18.8x    frame=17421 fps=450 q=-0.0 size=N/A time=00:12:06.60 bitrate=N/A speed=18.8x    frame=17679 fps=451 q=-0.0 size=N/A time=00:12:17.36 bitrate=N/A speed=18.8x    frame=17941 fps=452 q=-0.0 size=N/A time=00:12:28.28 bitrate=N/A speed=18.8x    frame=18193 fps=452 q=-0.0 size=N/A time=00:12:38.84 bitrate=N/A speed=18.9x    frame=18435 fps=452 q=-0.0 size=N/A time=00:12:48.89 bitrate=N/A speed=18.9x    frame=18680 fps=452 q=-0.0 size=N/A time=00:12:59.11 bitrate=N/A speed=18.9x    frame=18929 fps=453 q=-0.0 size=N/A time=00:13:09.49 bitrate=N/A speed=18.9x    frame=19185 fps=453 q=-0.0 size=N/A time=00:13:20.17 bitrate=N/A speed=18.9x    frame=19449 fps=454 q=-0.0 size=N/A time=00:13:31.18 bitrate=N/A speed=18.9x    frame=19684 fps=454 q=-0.0 size=N/A time=00:13:40.98 bitrate=N/A speed=18.9x    frame=19912 fps=454 q=-0.0 size=N/A time=00:13:50.49 bitrate=N/A speed=18.9x    frame=20152 fps=454 q=-0.0 size=N/A time=00:14:00.50 bitrate=N/A speed=18.9x    frame=20402 fps=454 q=-0.0 size=N/A time=00:14:10.93 bitrate=N/A speed=  19x    frame=20648 fps=455 q=-0.0 size=N/A time=00:14:21.19 bitrate=N/A speed=  19x    frame=20903 fps=455 q=-0.0 size=N/A time=00:14:31.82 bitrate=N/A speed=  19x    frame=21155 fps=456 q=-0.0 size=N/A time=00:14:42.33 bitrate=N/A speed=  19x    frame=21403 fps=456 q=-0.0 size=N/A time=00:14:52.68 bitrate=N/A speed=  19x    frame=21659 fps=456 q=-0.0 size=N/A time=00:15:03.40 bitrate=N/A speed=  19x    frame=21894 fps=456 q=-0.0 size=N/A time=00:15:13.16 bitrate=N/A speed=  19x    frame=22136 fps=456 q=-0.0 size=N/A time=00:15:23.25 bitrate=N/A speed=  19x    frame=22394 fps=457 q=-0.0 size=N/A time=00:15:34.01 bitrate=N/A speed=19.1x    frame=22647 fps=457 q=-0.0 size=N/A time=00:15:44.56 bitrate=N/A speed=19.1x    frame=22911 fps=458 q=-0.0 size=N/A time=00:15:55.57 bitrate=N/A speed=19.1x    frame=23155 fps=458 q=-0.0 size=N/A time=00:16:05.75 bitrate=N/A speed=19.1x    frame=23408 fps=458 q=-0.0 size=N/A time=00:16:16.30 bitrate=N/A speed=19.1x    frame=23660 fps=458 q=-0.0 size=N/A time=00:16:26.81 bitrate=N/A speed=19.1x    frame=23908 fps=459 q=-0.0 size=N/A time=00:16:37.16 bitrate=N/A speed=19.1x    frame=24159 fps=459 q=-0.0 size=N/A time=00:16:47.63 bitrate=N/A speed=19.1x    frame=24407 fps=459 q=-0.0 size=N/A time=00:16:57.97 bitrate=N/A speed=19.2x    frame=24647 fps=459 q=-0.0 size=N/A time=00:17:07.98 bitrate=N/A speed=19.2x    frame=24883 fps=459 q=-0.0 size=N/A time=00:17:17.82 bitrate=N/A speed=19.2x    frame=25135 fps=459 q=-0.0 size=N/A time=00:17:28.33 bitrate=N/A speed=19.2x    frame=25391 fps=460 q=-0.0 size=N/A time=00:17:39.01 bitrate=N/A speed=19.2x    frame=25630 fps=460 q=-0.0 size=N/A time=00:17:48.98 bitrate=N/A speed=19.2x    frame=25882 fps=460 q=-0.0 size=N/A time=00:17:59.49 bitrate=N/A speed=19.2x    frame=26094 fps=460 q=-0.0 size=N/A time=00:18:08.33 bitrate=N/A speed=19.2x    frame=26346 fps=460 q=-0.0 size=N/A time=00:18:18.84 bitrate=N/A speed=19.2x    frame=26587 fps=460 q=-0.0 size=N/A time=00:18:28.89 bitrate=N/A speed=19.2x    frame=26835 fps=460 q=-0.0 size=N/A time=00:18:39.24 bitrate=N/A speed=19.2x    frame=27075 fps=460 q=-0.0 size=N/A time=00:18:49.25 bitrate=N/A speed=19.2x    frame=27324 fps=460 q=-0.0 size=N/A time=00:18:59.63 bitrate=N/A speed=19.2x    frame=27562 fps=460 q=-0.0 size=N/A time=00:19:09.56 bitrate=N/A speed=19.2x    frame=27804 fps=461 q=-0.0 size=N/A time=00:19:19.65 bitrate=N/A speed=19.2x    frame=28048 fps=461 q=-0.0 size=N/A time=00:19:29.83 bitrate=N/A speed=19.2x    frame=28299 fps=461 q=-0.0 size=N/A time=00:19:40.30 bitrate=N/A speed=19.2x    frame=28555 fps=461 q=-0.0 size=N/A time=00:19:50.98 bitrate=N/A speed=19.2x    frame=28810 fps=461 q=-0.0 size=N/A time=00:20:01.61 bitrate=N/A speed=19.2x    frame=29071 fps=462 q=-0.0 size=N/A time=00:20:12.50 bitrate=N/A speed=19.3x    frame=29308 fps=462 q=-0.0 size=N/A time=00:20:22.38 bitrate=N/A speed=19.3x    frame=29556 fps=462 q=-0.0 size=N/A time=00:20:32.73 bitrate=N/A speed=19.3x    frame=29802 fps=462 q=-0.0 size=N/A time=00:20:42.99 bitrate=N/A speed=19.3x    frame=30059 fps=462 q=-0.0 size=N/A time=00:20:53.71 bitrate=N/A speed=19.3x    frame=30228 fps=461 q=-0.0 size=N/A time=00:21:00.75 bitrate=N/A speed=19.2x    frame=30466 fps=461 q=-0.0 size=N/A time=00:21:10.68 bitrate=N/A speed=19.2x    frame=30707 fps=461 q=-0.0 size=N/A time=00:21:20.73 bitrate=N/A speed=19.2x    frame=30951 fps=461 q=-0.0 size=N/A time=00:21:30.91 bitrate=N/A speed=19.2x    frame=31200 fps=462 q=-0.0 size=N/A time=00:21:41.30 bitrate=N/A speed=19.3x    frame=31449 fps=462 q=-0.0 size=N/A time=00:21:51.68 bitrate=N/A speed=19.3x    frame=31724 fps=462 q=-0.0 size=N/A time=00:22:03.15 bitrate=N/A speed=19.3x    frame=31964 fps=462 q=-0.0 size=N/A time=00:22:13.16 bitrate=N/A speed=19.3x    frame=32204 fps=462 q=-0.0 size=N/A time=00:22:23.17 bitrate=N/A speed=19.3x    frame=32449 fps=462 q=-0.0 size=N/A time=00:22:33.39 bitrate=N/A speed=19.3x    frame=32656 fps=462 q=-0.0 size=N/A time=00:22:42.02 bitrate=N/A speed=19.3x    frame=32831 fps=461 q=-0.0 size=N/A time=00:22:49.32 bitrate=N/A speed=19.2x    frame=33020 fps=460 q=-0.0 size=N/A time=00:22:57.20 bitrate=N/A speed=19.2x    frame=33211 fps=460 q=-0.0 size=N/A time=00:23:05.17 bitrate=N/A speed=19.2x    frame=33391 fps=459 q=-0.0 size=N/A time=00:23:12.68 bitrate=N/A speed=19.1x    frame=33580 fps=458 q=-0.0 size=N/A time=00:23:20.56 bitrate=N/A speed=19.1x    frame=33762 fps=458 q=-0.0 size=N/A time=00:23:28.15 bitrate=N/A speed=19.1x    frame=33974 fps=457 q=-0.0 size=N/A time=00:23:36.99 bitrate=N/A speed=19.1x    frame=34160 fps=457 q=-0.0 size=N/A time=00:23:44.75 bitrate=N/A speed=  19x    frame=34342 fps=456 q=-0.0 size=N/A time=00:23:52.34 bitrate=N/A speed=  19x    frame=34532 fps=455 q=-0.0 size=N/A time=00:24:00.27 bitrate=N/A speed=  19x    [Parsed_ssim_10 @ 00000187969c0f40] SSIM Y:0.993890 (22.139898) U:0.993383 (21.793199) V:0.993643 (21.967554) All:0.993765 (22.051353)
[out#0/null @ 00000187898c6e00] video:14903KiB audio:271276KiB subtitle:0KiB other streams:0KiB global headers:0KiB muxing overhead: unknown
frame=34684 fps=455 q=-0.0 Lsize=N/A time=00:24:06.61 bitrate=N/A speed=  19x    
